<?xml version="1.0" encoding="UTF-8" standalone="no"?>
<svg width="362px" height="295px" viewBox="0 0 362 295" version="1.1" xmlns="http://www.w3.org/2000/svg" xmlns:xlink="http://www.w3.org/1999/xlink" xmlns:sketch="http://www.bohemiancoding.com/sketch/ns">
    <!-- Generator: Sketch 3.3.2 (12043) - http://www.bohemiancoding.com/sketch -->
    <title>Imported Layers</title>
    <desc>Created with Sketch.</desc>
    <defs></defs>
    <g id="Page-1" stroke="none" stroke-width="1" fill="none" fill-rule="evenodd" sketch:type="MSPage">
        <g id="Imported-Layers" sketch:type="MSLayerGroup" fill="#01AB04">
            <path d="M244.690725,89.2200843 C248.835338,89.2200843 252.934655,89.5149518 257,89.9799351 C245.936374,38.35545 190.833399,0 127.928134,0 C57.6055959,0 0,48.0066883 0,108.964862 C0,144.144817 19.1603437,173.041826 51.1961666,195.451752 L38.3999559,234 L83.1187486,211.533369 C99.1196739,214.708864 111.961181,217.975088 127.928134,217.975088 C131.948182,217.975088 135.922935,217.770949 139.875039,217.464741 C137.372417,208.890903 135.922935,199.920128 135.922935,190.620462 C135.922935,134.641012 183.914386,89.2200843 244.690725,89.2200843 L244.690725,89.2200843 Z M175.896938,54.4824311 C185.53373,54.4824311 191.909187,60.8220811 191.909187,70.4619784 C191.909187,80.0678525 185.53373,86.498231 175.896938,86.498231 C166.316766,86.498231 156.691298,80.0678525 156.691298,70.4619784 C156.691298,60.8220811 166.316766,54.4824311 175.896938,54.4824311 L175.896938,54.4824311 Z M86.3687596,86.498231 C76.7772637,86.498231 67.1064992,80.0678525 67.1064992,70.4619784 C67.1064992,60.8220811 76.7772637,54.4824311 86.3687596,54.4824311 C95.9602556,54.4824311 102.335713,60.8220811 102.335713,70.4619784 C102.335713,80.0678525 95.9602556,86.498231 86.3687596,86.498231 L86.3687596,86.498231 Z" id="Fill-1" sketch:type="MSShapeGroup"></path>
            <path d="M362,189.084674 C362,137.796131 310.701208,96 253.068111,96 C192.052177,96 144,137.796131 144,189.084674 C144,240.452699 192.052177,282.169348 253.068111,282.169348 C265.838888,282.169348 278.723183,278.944654 291.550719,275.731313 L326.729952,295 L317.080921,262.94608 C342.826807,243.620621 362,218.01609 362,189.084674 L362,189.084674 Z M217.707248,173.029328 C211.327536,173.029328 204.879713,166.682129 204.879713,160.198676 C204.879713,153.80606 211.327536,147.368025 217.707248,147.368025 C227.413039,147.368025 233.758696,153.80606 233.758696,160.198676 C233.758696,166.682129 227.413039,173.029328 217.707248,173.029328 L217.707248,173.029328 Z M288.247344,173.029328 C281.901687,173.029328 275.510623,166.682129 275.510623,160.198676 C275.510623,153.80606 281.901687,147.368025 288.247344,147.368025 C297.86232,147.368025 304.298792,153.80606 304.298792,160.198676 C304.298792,166.682129 297.86232,173.029328 288.247344,173.029328 L288.247344,173.029328 Z" id="Fill-2" sketch:type="MSShapeGroup"></path>
        </g>
    </g>
</svg>